G04 Layer_Physical_Order=4*
G04 Layer_Color=16711680*
%FSLAX25Y25*%
%MOIN*%
G70*
G01*
G75*
%ADD19R,0.15984X0.05984*%
%ADD31C,0.00800*%
%ADD32C,0.01500*%
%ADD35C,0.01799*%
%ADD39C,0.05905*%
%ADD40R,0.05905X0.05905*%
%ADD41R,0.05905X0.05905*%
%ADD42C,0.04803*%
%ADD43C,0.11300*%
%ADD44C,0.02200*%
%ADD45C,0.02400*%
%ADD46C,0.03800*%
%ADD47C,0.02362*%
%ADD48C,0.01575*%
%ADD57R,0.02362X0.11024*%
G36*
X170000Y45000D02*
X110727D01*
X110313Y46000D01*
X149672Y85359D01*
X150000Y85294D01*
X150702Y85433D01*
X151298Y85831D01*
X151696Y86426D01*
X151835Y87129D01*
X151696Y87831D01*
X151298Y88427D01*
X150702Y88824D01*
X150000Y88964D01*
X149298Y88824D01*
X148702Y88427D01*
X148304Y87831D01*
X148165Y87129D01*
X148230Y86801D01*
X108680Y47251D01*
X85283D01*
X85097Y47529D01*
X84501Y47927D01*
X83799Y48066D01*
X83097Y47927D01*
X82502Y47529D01*
X82104Y46933D01*
X81964Y46231D01*
X82010Y46000D01*
X81346Y45000D01*
X72500D01*
Y117500D01*
X170000D01*
Y45000D01*
D02*
G37*
G36*
Y160000D02*
X116797D01*
X109824Y166973D01*
X109377Y167272D01*
X108850Y167376D01*
X97500D01*
Y206866D01*
X97663Y206899D01*
X98226Y207274D01*
X98601Y207837D01*
X98733Y208500D01*
X98601Y209163D01*
X98226Y209726D01*
X98194Y209746D01*
X98055Y210768D01*
X98679Y211480D01*
X100578D01*
X101920Y210138D01*
X101889Y209751D01*
X101660Y208983D01*
X101274Y208726D01*
X100899Y208163D01*
X100767Y207500D01*
X100899Y206837D01*
X101274Y206274D01*
X101837Y205899D01*
X102500Y205767D01*
X103163Y205899D01*
X103726Y206274D01*
X103983Y206660D01*
X104751Y206889D01*
X105138Y206921D01*
X107279Y204779D01*
X107610Y204558D01*
X108000Y204480D01*
X109637D01*
X109774Y204274D01*
X109791Y203233D01*
X103279Y196721D01*
X103058Y196390D01*
X102980Y196000D01*
X103058Y195610D01*
X103279Y195279D01*
X103610Y195058D01*
X104000Y194980D01*
X104390Y195058D01*
X104721Y195279D01*
X111721Y202279D01*
X111942Y202610D01*
X112020Y203000D01*
Y204137D01*
X112226Y204274D01*
X112601Y204837D01*
X112733Y205500D01*
X112601Y206163D01*
X112226Y206726D01*
X111663Y207101D01*
X111000Y207233D01*
X110337Y207101D01*
X109774Y206726D01*
X109637Y206520D01*
X108422D01*
X107646Y207296D01*
X107992Y208365D01*
X108163Y208399D01*
X108726Y208774D01*
X109101Y209337D01*
X109233Y210000D01*
X109101Y210663D01*
X108726Y211226D01*
X108163Y211601D01*
X107500Y211733D01*
X107257Y211685D01*
X104221Y214721D01*
X103890Y214942D01*
X103500Y215020D01*
X97500D01*
Y235000D01*
X114980D01*
Y214863D01*
X114774Y214726D01*
X114399Y214163D01*
X114267Y213500D01*
X114399Y212837D01*
X114774Y212274D01*
X115337Y211899D01*
X116000Y211767D01*
X116663Y211899D01*
X117226Y212274D01*
X117601Y212837D01*
X117733Y213500D01*
X117601Y214163D01*
X117226Y214726D01*
X117020Y214863D01*
Y235000D01*
X170000D01*
Y160000D01*
D02*
G37*
%LPC*%
G36*
X99748Y85475D02*
X99046Y85335D01*
X98451Y84937D01*
X98053Y84342D01*
X97913Y83640D01*
X98053Y82937D01*
X98451Y82342D01*
X99046Y81944D01*
X99748Y81804D01*
X100451Y81944D01*
X101046Y82342D01*
X101444Y82937D01*
X101584Y83640D01*
X101444Y84342D01*
X101046Y84937D01*
X100451Y85335D01*
X99748Y85475D01*
D02*
G37*
G36*
X96748Y65464D02*
X96046Y65324D01*
X95451Y64926D01*
X95053Y64331D01*
X94913Y63629D01*
X95053Y62926D01*
X95451Y62331D01*
X96046Y61933D01*
X96748Y61794D01*
X97451Y61933D01*
X98046Y62331D01*
X98444Y62926D01*
X98584Y63629D01*
X98444Y64331D01*
X98046Y64926D01*
X97451Y65324D01*
X96748Y65464D01*
D02*
G37*
G36*
X132940Y77982D02*
X132238Y77842D01*
X131643Y77444D01*
X131245Y76849D01*
X131105Y76146D01*
X131245Y75444D01*
X131643Y74849D01*
X132238Y74451D01*
X132940Y74311D01*
X133643Y74451D01*
X134238Y74849D01*
X134636Y75444D01*
X134776Y76146D01*
X134636Y76849D01*
X134238Y77444D01*
X133643Y77842D01*
X132940Y77982D01*
D02*
G37*
G36*
X115000Y95156D02*
X114216Y95053D01*
X113486Y94751D01*
X112859Y94270D01*
X112378Y93642D01*
X112076Y92912D01*
X111972Y92129D01*
X112076Y91345D01*
X112378Y90615D01*
X112859Y89988D01*
X113486Y89507D01*
X114216Y89204D01*
X115000Y89101D01*
X115784Y89204D01*
X116514Y89507D01*
X117141Y89988D01*
X117622Y90615D01*
X117924Y91345D01*
X118027Y92129D01*
X117924Y92912D01*
X117622Y93642D01*
X117141Y94270D01*
X116514Y94751D01*
X115784Y95053D01*
X115000Y95156D01*
D02*
G37*
G36*
X128500Y197733D02*
X127837Y197601D01*
X127274Y197226D01*
X126899Y196663D01*
X126767Y196000D01*
X126899Y195337D01*
X127274Y194774D01*
X127837Y194399D01*
X128500Y194267D01*
X129163Y194399D01*
X129726Y194774D01*
X130101Y195337D01*
X130233Y196000D01*
X130101Y196663D01*
X129726Y197226D01*
X129163Y197601D01*
X128500Y197733D01*
D02*
G37*
G36*
X126159Y207418D02*
X125495Y207286D01*
X124933Y206910D01*
X124557Y206348D01*
X124425Y205685D01*
X124557Y205022D01*
X124933Y204459D01*
X125495Y204083D01*
X126159Y203952D01*
X126822Y204083D01*
X127384Y204459D01*
X127760Y205022D01*
X127892Y205685D01*
X127760Y206348D01*
X127384Y206910D01*
X126822Y207286D01*
X126159Y207418D01*
D02*
G37*
G36*
X112843Y175890D02*
X112180Y175758D01*
X111618Y175382D01*
X111242Y174820D01*
X111110Y174157D01*
X111242Y173494D01*
X111618Y172931D01*
X112180Y172555D01*
X112843Y172424D01*
X113506Y172555D01*
X114069Y172931D01*
X114444Y173494D01*
X114576Y174157D01*
X114444Y174820D01*
X114069Y175382D01*
X113506Y175758D01*
X112843Y175890D01*
D02*
G37*
%LPD*%
D19*
X162500Y178000D02*
D03*
Y198000D02*
D03*
D31*
X61000Y185937D02*
X61063D01*
X109102Y46231D02*
X150000Y87129D01*
X83799Y46231D02*
X109102D01*
X94500Y135000D02*
X102500Y127000D01*
X106000Y156500D02*
X115000Y147500D01*
Y129500D02*
Y147500D01*
X112500Y127000D02*
X115000Y129500D01*
X67500Y132000D02*
X72500Y127000D01*
X22500Y190000D02*
X25000Y192500D01*
X30000D01*
X20000Y169500D02*
Y192500D01*
Y169500D02*
X62500Y127000D01*
X25000Y171530D02*
X61530Y135000D01*
X25000Y171530D02*
Y185500D01*
X61530Y135000D02*
X94500D01*
X22500Y170500D02*
Y190000D01*
Y170500D02*
X61000Y132000D01*
X67500D01*
X102500Y162500D02*
X130000Y135000D01*
X145000D01*
X147500Y137500D01*
Y144500D01*
X151000Y148000D01*
X91000Y211000D02*
Y235000D01*
X55000D02*
X62500Y242500D01*
X110000D01*
X116000Y236500D01*
Y213500D02*
Y236500D01*
X104000Y196000D02*
X111000Y203000D01*
Y205500D01*
X55000Y192000D02*
X61063Y185937D01*
X55000Y192000D02*
Y235000D01*
X58000Y161500D02*
X63000Y156500D01*
X106000D01*
X58000Y174500D02*
X97500Y214000D01*
X103500D01*
X107500Y210000D01*
X58000Y161500D02*
Y174500D01*
X108000Y205500D02*
X111000D01*
X101000Y212500D02*
X108000Y205500D01*
X97980Y212500D02*
X101000D01*
X61500Y176020D02*
X97980Y212500D01*
X61500Y166500D02*
Y176020D01*
Y166500D02*
X65500Y162500D01*
X102500D01*
D32*
X108850Y166000D02*
X134000Y140850D01*
X66000Y173500D02*
Y177500D01*
X97000Y208500D01*
X66000Y173500D02*
X73500Y166000D01*
X108850D01*
D35*
X149000Y178000D02*
X162500Y178000D01*
X149000Y198000D02*
X162500D01*
D39*
X112500Y127000D02*
D03*
X102500D02*
D03*
X92500D02*
D03*
X82500D02*
D03*
X62500D02*
D03*
X72500D02*
D03*
X19000Y91000D02*
D03*
Y81000D02*
D03*
D40*
X52500Y127000D02*
D03*
D41*
X19000Y71000D02*
D03*
D42*
X115000Y92129D02*
D03*
D43*
X21550Y234150D02*
D03*
D44*
X84488Y212913D02*
D03*
X134000Y140850D02*
D03*
X167000D02*
D03*
X151000Y148000D02*
D03*
X140000Y152500D02*
D03*
X162000D02*
D03*
X151000Y144000D02*
D03*
X135000Y222322D02*
D03*
X131000Y226000D02*
D03*
X127000Y229878D02*
D03*
X145500Y200000D02*
D03*
Y205500D02*
D03*
Y211000D02*
D03*
Y163157D02*
D03*
Y168657D02*
D03*
Y174157D02*
D03*
X109989Y142390D02*
D03*
X104489D02*
D03*
X98989Y142390D02*
D03*
X112843Y174157D02*
D03*
X44081Y139500D02*
D03*
X39920Y143000D02*
D03*
X36063Y147000D02*
D03*
X36000Y163500D02*
D03*
Y168937D02*
D03*
Y174437D02*
D03*
Y180120D02*
D03*
Y185937D02*
D03*
Y191437D02*
D03*
X66000Y173500D02*
D03*
X53500Y174500D02*
D03*
X61063Y185937D02*
D03*
X126159Y205685D02*
D03*
X116000Y213500D02*
D03*
X111500Y230500D02*
D03*
X105500D02*
D03*
X100000Y230500D02*
D03*
X94500D02*
D03*
X88000D02*
D03*
X82500D02*
D03*
X77000Y230500D02*
D03*
X71500D02*
D03*
X66000Y230500D02*
D03*
X60500D02*
D03*
X35500Y230000D02*
D03*
X15000Y102500D02*
D03*
X22500Y102500D02*
D03*
X30000Y102500D02*
D03*
X37500Y102500D02*
D03*
X97000Y208500D02*
D03*
X62497Y142390D02*
D03*
X68348D02*
D03*
X73848D02*
D03*
X128500Y196000D02*
D03*
X20000Y192500D02*
D03*
X30000D02*
D03*
X25000Y185500D02*
D03*
X102500Y240000D02*
D03*
X91000Y235000D02*
D03*
Y211000D02*
D03*
X107500Y210000D02*
D03*
X111000Y205500D02*
D03*
X102500Y207500D02*
D03*
X144788Y181382D02*
D03*
X141588D02*
D03*
X131585Y193627D02*
D03*
X134248Y195401D02*
D03*
X137439Y195635D02*
D03*
X140501Y194705D02*
D03*
X143701D02*
D03*
X146901D02*
D03*
X76050Y106150D02*
D03*
X78550Y111150D02*
D03*
X81050Y106150D02*
D03*
X86050D02*
D03*
X91050D02*
D03*
X96050D02*
D03*
X101050D02*
D03*
X106050D02*
D03*
X108550Y171150D02*
D03*
X106050Y176150D02*
D03*
X113550Y101150D02*
D03*
X111050Y106150D02*
D03*
X118550Y71150D02*
D03*
Y101150D02*
D03*
X116050Y106150D02*
D03*
X118550Y171150D02*
D03*
X123550Y51150D02*
D03*
X121050Y96150D02*
D03*
X123550Y101150D02*
D03*
X121050Y106150D02*
D03*
X123550Y171150D02*
D03*
X128550Y51150D02*
D03*
X126050Y56150D02*
D03*
X128550Y101150D02*
D03*
X126050Y106150D02*
D03*
Y166150D02*
D03*
X128550Y171150D02*
D03*
X133550Y51150D02*
D03*
X131050Y56150D02*
D03*
X133550Y101150D02*
D03*
X131050Y106150D02*
D03*
X133550Y231150D02*
D03*
X138550Y51150D02*
D03*
X136050Y56150D02*
D03*
X138550Y101150D02*
D03*
Y231150D02*
D03*
X143550Y51150D02*
D03*
X141050Y56150D02*
D03*
Y96150D02*
D03*
Y216150D02*
D03*
X143550Y221150D02*
D03*
X141050Y226150D02*
D03*
X143550Y231150D02*
D03*
X148550Y51150D02*
D03*
X146050Y56150D02*
D03*
Y66150D02*
D03*
X148550Y71150D02*
D03*
Y111150D02*
D03*
X146050Y216150D02*
D03*
X148550Y221150D02*
D03*
X146050Y226150D02*
D03*
X148550Y231150D02*
D03*
X153550Y51150D02*
D03*
X151050Y56150D02*
D03*
Y66150D02*
D03*
Y106150D02*
D03*
X153550Y111150D02*
D03*
X151050Y166150D02*
D03*
X153550Y171150D02*
D03*
X151050Y206150D02*
D03*
X153550Y211150D02*
D03*
X151050Y216150D02*
D03*
X153550Y221150D02*
D03*
X151050Y226150D02*
D03*
X153550Y231150D02*
D03*
X158550Y51150D02*
D03*
X156050Y56150D02*
D03*
Y76150D02*
D03*
X158550Y101150D02*
D03*
X156050Y106150D02*
D03*
X158550Y111150D02*
D03*
X156050Y166150D02*
D03*
X158550Y171150D02*
D03*
X156050Y206150D02*
D03*
X158550Y211150D02*
D03*
X156050Y216150D02*
D03*
X158550Y221150D02*
D03*
X156050Y226150D02*
D03*
X158550Y231150D02*
D03*
X163550Y51150D02*
D03*
X161050Y56150D02*
D03*
Y96150D02*
D03*
X163550Y101150D02*
D03*
X161050Y106150D02*
D03*
X163550Y111150D02*
D03*
X161050Y166150D02*
D03*
X163550Y171150D02*
D03*
X161050Y206150D02*
D03*
X163550Y211150D02*
D03*
X161050Y216150D02*
D03*
X163550Y221150D02*
D03*
X161050Y226150D02*
D03*
X163550Y231150D02*
D03*
X166050Y56150D02*
D03*
Y96150D02*
D03*
Y106150D02*
D03*
Y166150D02*
D03*
Y206150D02*
D03*
Y216150D02*
D03*
Y226150D02*
D03*
D45*
X106278Y53498D02*
D03*
X109000Y62194D02*
D03*
X65059Y116188D02*
D03*
X92120Y53629D02*
D03*
X52731Y50465D02*
D03*
X52635Y56764D02*
D03*
X167500Y64482D02*
D03*
X55579Y99629D02*
D03*
X61500D02*
D03*
X99748Y77688D02*
D03*
X99748Y83640D02*
D03*
X126658Y76146D02*
D03*
X83799Y46231D02*
D03*
X150000Y81111D02*
D03*
Y91371D02*
D03*
Y87129D02*
D03*
X96748Y63629D02*
D03*
X72272Y77873D02*
D03*
X81451Y99480D02*
D03*
X110000Y94629D02*
D03*
X132940Y76146D02*
D03*
D46*
X149000Y178000D02*
D03*
Y198000D02*
D03*
D47*
X90000Y187303D02*
D03*
Y192421D02*
D03*
X94724Y187303D02*
D03*
Y192028D02*
D03*
X90000Y182579D02*
D03*
X94724Y182579D02*
D03*
X85276Y187303D02*
D03*
Y192028D02*
D03*
Y182579D02*
D03*
D48*
X113500Y75200D02*
D03*
X113500Y79728D02*
D03*
Y84255D02*
D03*
D57*
Y79728D02*
D03*
M02*
