G04 Layer_Physical_Order=1*
G04 Layer_Color=255*
%FSLAX25Y25*%
%MOIN*%
G70*
G01*
G75*
%ADD10R,0.03543X0.03740*%
%ADD11R,0.03740X0.03543*%
%ADD12R,0.03937X0.03740*%
%ADD13R,0.03583X0.03780*%
%ADD14R,0.03740X0.03937*%
%ADD15R,0.04331X0.02362*%
%ADD16O,0.05118X0.01378*%
%ADD17O,0.06299X0.01378*%
%ADD18R,0.03543X0.03150*%
%ADD19R,0.15984X0.05984*%
%ADD20R,0.00787X0.03543*%
%ADD21R,0.17323X0.17323*%
%ADD22R,0.03543X0.00787*%
G04:AMPARAMS|DCode=23|XSize=35.43mil|YSize=37.4mil|CornerRadius=0mil|HoleSize=0mil|Usage=FLASHONLY|Rotation=315.000|XOffset=0mil|YOffset=0mil|HoleType=Round|Shape=Rectangle|*
%AMROTATEDRECTD23*
4,1,4,-0.02575,-0.00070,0.00070,0.02575,0.02575,0.00070,-0.00070,-0.02575,-0.02575,-0.00070,0.0*
%
%ADD23ROTATEDRECTD23*%

G04:AMPARAMS|DCode=24|XSize=35.43mil|YSize=37.4mil|CornerRadius=0mil|HoleSize=0mil|Usage=FLASHONLY|Rotation=45.000|XOffset=0mil|YOffset=0mil|HoleType=Round|Shape=Rectangle|*
%AMROTATEDRECTD24*
4,1,4,0.00070,-0.02575,-0.02575,0.00070,-0.00070,0.02575,0.02575,-0.00070,0.00070,-0.02575,0.0*
%
%ADD24ROTATEDRECTD24*%

%ADD25R,0.01378X0.03937*%
%ADD26R,0.03150X0.03150*%
G04:AMPARAMS|DCode=27|XSize=37.4mil|YSize=39.37mil|CornerRadius=0mil|HoleSize=0mil|Usage=FLASHONLY|Rotation=225.000|XOffset=0mil|YOffset=0mil|HoleType=Round|Shape=Rectangle|*
%AMROTATEDRECTD27*
4,1,4,-0.00070,0.02714,0.02714,-0.00070,0.00070,-0.02714,-0.02714,0.00070,-0.00070,0.02714,0.0*
%
%ADD27ROTATEDRECTD27*%

%ADD28R,0.02362X0.02559*%
%ADD29R,0.02461X0.03150*%
%ADD30R,0.03937X0.03937*%
%ADD31C,0.00800*%
%ADD32C,0.01500*%
%ADD33C,0.01000*%
%ADD34C,0.02000*%
%ADD35C,0.01799*%
%ADD36C,0.00600*%
%ADD37C,0.02284*%
%ADD38R,0.02000X0.07000*%
%ADD39C,0.05905*%
%ADD40R,0.05905X0.05905*%
%ADD41R,0.05905X0.05905*%
%ADD42C,0.04803*%
%ADD43C,0.11300*%
%ADD44C,0.02200*%
%ADD45C,0.02400*%
%ADD46C,0.03800*%
%ADD47C,0.02362*%
%ADD48C,0.01575*%
G36*
X170000Y45000D02*
X86253D01*
X85589Y46000D01*
X85634Y46231D01*
X85585Y46481D01*
X87196Y48093D01*
X90092D01*
Y51655D01*
X84561D01*
Y48859D01*
X83799Y48066D01*
X83097Y47927D01*
X82502Y47529D01*
X82316Y47251D01*
X78144D01*
X77925Y48160D01*
X77925D01*
Y53100D01*
X77636D01*
X77556Y54100D01*
X77925Y54160D01*
X78836Y54310D01*
Y54310D01*
X83579D01*
Y55531D01*
X84561Y55573D01*
Y55573D01*
X90092D01*
Y59136D01*
X84561D01*
Y59136D01*
X83579Y59179D01*
Y59250D01*
X78864D01*
X78836Y59250D01*
X78836Y59250D01*
X77925Y59100D01*
Y59100D01*
X75142D01*
X74759Y60024D01*
X81386Y66651D01*
X107371D01*
X110607Y63415D01*
X110665Y63328D01*
X112318Y61675D01*
X112847Y61322D01*
X113472Y61197D01*
X113472Y61197D01*
X153836D01*
X154460Y61322D01*
X154989Y61675D01*
X155424Y62110D01*
X158236D01*
Y66853D01*
X158236D01*
Y67610D01*
X158236D01*
Y72353D01*
X158236D01*
X157937Y73076D01*
X159733Y74872D01*
X161267D01*
X161405Y74779D01*
X161908Y74679D01*
X166830D01*
X167332Y74779D01*
X167759Y75064D01*
X168044Y75490D01*
X168144Y75993D01*
X168044Y76496D01*
X167759Y76923D01*
Y77623D01*
X168044Y78049D01*
X168144Y78552D01*
X168044Y79055D01*
X167759Y79482D01*
Y80182D01*
X168044Y80608D01*
X168144Y81111D01*
X168044Y81614D01*
X167759Y82041D01*
Y82741D01*
X168044Y83167D01*
X168144Y83670D01*
X168044Y84173D01*
X167759Y84600D01*
X167759Y85300D01*
X168044Y85726D01*
X168144Y86229D01*
X168044Y86732D01*
X167759Y87159D01*
X167759Y87859D01*
X168044Y88286D01*
X168144Y88788D01*
X168044Y89292D01*
X167759Y89718D01*
Y90418D01*
X168044Y90845D01*
X168144Y91348D01*
X168044Y91851D01*
X167759Y92277D01*
X167332Y92562D01*
X166830Y92662D01*
X161908D01*
X161405Y92562D01*
X160979Y92277D01*
X160694Y91851D01*
X160594Y91348D01*
X160694Y90845D01*
X160979Y90418D01*
Y89718D01*
X160694Y89292D01*
X160594Y88788D01*
X160694Y88286D01*
X160719Y88249D01*
X160229Y87249D01*
X159193D01*
X156520Y89922D01*
Y94000D01*
X156442Y94390D01*
X156221Y94721D01*
X134366Y116576D01*
X134748Y117500D01*
X170000D01*
Y45000D01*
D02*
G37*
G36*
X160414Y80115D02*
X160787Y79194D01*
X160694Y79055D01*
X160594Y78552D01*
X160681Y78115D01*
X160679Y78025D01*
X160116Y77115D01*
X159269D01*
X158839Y77029D01*
X158476Y76786D01*
X158476Y76786D01*
X154865Y73175D01*
X154621Y72811D01*
X154536Y72382D01*
X153588Y72353D01*
X153296D01*
Y67610D01*
X153296D01*
Y66853D01*
X153296D01*
Y64596D01*
X153160Y64460D01*
X114147D01*
X113030Y65577D01*
X112972Y65664D01*
X109200Y69436D01*
X108981Y69582D01*
X109284Y70582D01*
X110620D01*
X115351Y65851D01*
X115649Y65652D01*
X116000Y65582D01*
X140500D01*
X140851Y65652D01*
X141149Y65851D01*
X155491Y80194D01*
X160344D01*
X160414Y80115D01*
D02*
G37*
G36*
X86279Y111779D02*
X86610Y111558D01*
X87000Y111480D01*
X133578D01*
X151480Y93578D01*
Y89507D01*
X151203Y89264D01*
X150480Y88868D01*
X150000Y88964D01*
X149672Y88899D01*
X149061Y89509D01*
X148730Y89731D01*
X148340Y89808D01*
X144986D01*
X144695Y90003D01*
X144192Y90103D01*
X139270D01*
X138768Y90003D01*
X138341Y89718D01*
X138094Y89348D01*
X138027Y89285D01*
X136987Y89041D01*
X135526Y90502D01*
Y94099D01*
X130389D01*
Y89277D01*
X130389Y89159D01*
X130389D01*
X130470Y88311D01*
X130470D01*
Y83568D01*
X130470D01*
X130470Y82811D01*
X130470D01*
Y78068D01*
X130914D01*
X131392Y77068D01*
X131245Y76849D01*
X131105Y76146D01*
X131245Y75444D01*
X131486Y75083D01*
X131196Y74278D01*
X131043Y74083D01*
X130358D01*
Y69143D01*
X135495D01*
Y72538D01*
X137829Y74872D01*
X138629D01*
X138768Y74779D01*
X139270Y74679D01*
X144192D01*
X144695Y74779D01*
X145121Y75064D01*
X145406Y75490D01*
X145506Y75993D01*
X145406Y76496D01*
X145121Y76923D01*
Y77623D01*
X145406Y78049D01*
X145506Y78552D01*
X145406Y79055D01*
X145121Y79482D01*
X144695Y79766D01*
X144192Y79866D01*
X139270D01*
X138768Y79766D01*
X138629Y79674D01*
X135522D01*
X135411Y79786D01*
Y82549D01*
X138629D01*
X138768Y82456D01*
X139270Y82356D01*
X144192D01*
X144695Y82456D01*
X145121Y82741D01*
X145406Y83167D01*
X145506Y83670D01*
X145406Y84173D01*
X145121Y84600D01*
Y85300D01*
X145406Y85726D01*
X145506Y86229D01*
X145406Y86732D01*
X145381Y86769D01*
X145871Y87769D01*
X147327D01*
X148165Y87129D01*
X148304Y86426D01*
X148702Y85831D01*
X149298Y85433D01*
X150000Y85294D01*
X150702Y85433D01*
X151298Y85831D01*
X151696Y86426D01*
X151699Y86445D01*
X152784Y86774D01*
X156529Y83029D01*
X156491Y82694D01*
X156186Y82029D01*
X155111D01*
X154760Y81959D01*
X154463Y81760D01*
X140120Y67418D01*
X116380D01*
X111649Y72149D01*
X111351Y72348D01*
X111000Y72418D01*
X72500D01*
Y87215D01*
X73500Y87999D01*
X73675Y87956D01*
Y85906D01*
X73752Y85515D01*
X73973Y85185D01*
X74179Y84979D01*
Y81355D01*
X78922D01*
Y81355D01*
X79679Y81355D01*
Y81355D01*
X84422D01*
Y82860D01*
X85505D01*
Y81150D01*
X87054D01*
Y80060D01*
X85603D01*
Y75317D01*
X90543D01*
Y80060D01*
X89093D01*
Y81150D01*
X90288D01*
Y84589D01*
X91158Y85460D01*
X92158Y85046D01*
Y81150D01*
X96941D01*
Y82008D01*
X98950D01*
X99046Y81944D01*
X99748Y81804D01*
X100451Y81944D01*
X100988Y82149D01*
X101579Y81948D01*
X101836Y81758D01*
X101836Y81479D01*
Y77159D01*
X106776D01*
Y77330D01*
X107684Y77553D01*
Y77553D01*
X111344D01*
Y81902D01*
X107684D01*
Y81902D01*
X106776Y82125D01*
Y82296D01*
X102841D01*
X102481Y82912D01*
X102956Y83458D01*
X106776D01*
Y88595D01*
X105428D01*
Y89825D01*
X106677D01*
Y94765D01*
X101934D01*
Y94418D01*
X101532Y93584D01*
X96823D01*
X96788Y93584D01*
X95823D01*
X95788Y93584D01*
X91080D01*
X90484Y94338D01*
Y94765D01*
X85741D01*
Y93217D01*
X84051D01*
X83760Y93412D01*
X83257Y93512D01*
X79517D01*
X79014Y93412D01*
X78487Y93558D01*
X77778Y94254D01*
X77878Y94757D01*
X77778Y95260D01*
X77494Y95686D01*
X77067Y95971D01*
X76564Y96071D01*
X72824D01*
X72500Y96337D01*
Y117500D01*
X80558D01*
X86279Y111779D01*
D02*
G37*
G36*
X111158Y174400D02*
X111110Y174157D01*
X111242Y173494D01*
X111618Y172931D01*
X112180Y172555D01*
X112843Y172424D01*
X113506Y172555D01*
X114069Y172931D01*
X114206Y173137D01*
X130811D01*
Y171785D01*
X130811D01*
Y171028D01*
X130811D01*
Y166285D01*
X130811D01*
Y165529D01*
X130811D01*
Y161103D01*
X129971Y160400D01*
X129435Y160432D01*
X125926Y163940D01*
X124883Y162897D01*
X121058Y166721D01*
X120728Y166942D01*
X120337Y167020D01*
X106509D01*
X99681Y173847D01*
Y175886D01*
X99655Y176016D01*
Y177428D01*
X99655Y177845D01*
X100072Y177845D01*
X103986D01*
Y180158D01*
X104986Y180572D01*
X111158Y174400D01*
D02*
G37*
G36*
X170000Y194992D02*
X150508D01*
Y193230D01*
X141248D01*
Y194012D01*
X131870D01*
Y190612D01*
X130152D01*
Y189122D01*
X125620D01*
Y190372D01*
X125620D01*
X125329Y191251D01*
X125314Y191372D01*
X128257Y194315D01*
X128500Y194267D01*
X129163Y194399D01*
X129726Y194774D01*
X130056Y195269D01*
X130071Y195279D01*
X132421Y197628D01*
X135820D01*
Y202372D01*
X135820D01*
Y203128D01*
X135820D01*
Y207872D01*
X135820D01*
Y208628D01*
X135820D01*
Y213372D01*
X130880D01*
Y208628D01*
X130880D01*
Y207872D01*
X130880D01*
Y203128D01*
X130880D01*
Y202372D01*
X130880D01*
Y198972D01*
X129371Y197463D01*
X129163Y197601D01*
X128500Y197733D01*
X127837Y197601D01*
X127274Y197226D01*
X126899Y196663D01*
X126767Y196000D01*
X126815Y195757D01*
X124078Y193020D01*
X116242D01*
X115859Y193944D01*
X125916Y204000D01*
X126159Y203952D01*
X126822Y204083D01*
X127384Y204459D01*
X127760Y205022D01*
X127892Y205685D01*
X127760Y206348D01*
X127384Y206910D01*
X127178Y207048D01*
Y211146D01*
X129582Y213550D01*
X126228Y216904D01*
X126228D01*
X125693Y217439D01*
X122339Y220793D01*
X121804Y221328D01*
X118450Y224682D01*
X114957Y221189D01*
X118311Y217835D01*
X118846Y217300D01*
X122200Y213946D01*
X122200D01*
X122735Y213411D01*
X125139Y211007D01*
Y207048D01*
X124933Y206910D01*
X124557Y206348D01*
X124425Y205685D01*
X124474Y205442D01*
X117944Y198912D01*
X117020Y199294D01*
Y212137D01*
X117226Y212274D01*
X117601Y212837D01*
X117733Y213500D01*
X117601Y214163D01*
X117226Y214726D01*
X116663Y215101D01*
X116000Y215233D01*
X115757Y215185D01*
X113872Y217070D01*
Y220321D01*
X109128D01*
Y215380D01*
X112678D01*
X114315Y213743D01*
X114267Y213500D01*
X114399Y212837D01*
X114774Y212274D01*
X114980Y212137D01*
Y197929D01*
X112997Y195945D01*
X112020Y196382D01*
Y204137D01*
X112226Y204274D01*
X112601Y204837D01*
X112733Y205500D01*
X112601Y206163D01*
X112226Y206726D01*
X111663Y207101D01*
X111000Y207233D01*
X110337Y207101D01*
X109774Y206726D01*
X109520Y206344D01*
X108639Y206464D01*
X108520Y206511D01*
Y208637D01*
X108726Y208774D01*
X109101Y209337D01*
X109233Y210000D01*
X109101Y210663D01*
X108726Y211226D01*
X108163Y211601D01*
X107500Y211733D01*
X106837Y211601D01*
X106274Y211226D01*
X105899Y210663D01*
X105767Y210000D01*
X105899Y209337D01*
X106274Y208774D01*
X106480Y208637D01*
Y200422D01*
X103239Y197181D01*
X101614D01*
X101484Y197155D01*
X100072D01*
X99655Y197155D01*
X99655Y197572D01*
Y199870D01*
X99681Y200000D01*
Y203239D01*
X102257Y205815D01*
X102500Y205767D01*
X103163Y205899D01*
X103726Y206274D01*
X104101Y206837D01*
X104233Y207500D01*
X104101Y208163D01*
X103726Y208726D01*
X103520Y208863D01*
Y215350D01*
X103544Y215380D01*
X107872D01*
Y220321D01*
X103128D01*
Y220321D01*
X102372Y220321D01*
Y220321D01*
X97628D01*
X97500Y221267D01*
Y235000D01*
X170000D01*
Y194992D01*
D02*
G37*
G36*
X109980Y203855D02*
Y196422D01*
X106015Y192457D01*
X101614D01*
X101484Y192431D01*
X99243D01*
Y188868D01*
Y184144D01*
Y179420D01*
X99243Y178258D01*
X98826Y178258D01*
X97500D01*
Y196742D01*
X98826D01*
X99243Y196742D01*
X99243Y196326D01*
Y193593D01*
X103986D01*
Y195206D01*
X104052Y195219D01*
X104382Y195440D01*
X108221Y199279D01*
X108442Y199610D01*
X108520Y200000D01*
Y203854D01*
X109520Y204287D01*
X109980Y203855D01*
D02*
G37*
G36*
X120679Y190062D02*
Y185628D01*
X125620D01*
Y186878D01*
X130152D01*
Y185475D01*
X131870D01*
Y183525D01*
X130152D01*
Y182078D01*
X125620D01*
Y183328D01*
X120679D01*
Y178585D01*
X125620D01*
Y179835D01*
X130152D01*
Y178388D01*
X132730D01*
Y182075D01*
X135270D01*
Y178388D01*
X137848D01*
Y182075D01*
X141248D01*
Y182857D01*
X150508D01*
Y181008D01*
X170000D01*
Y160000D01*
X136270D01*
X135751Y160785D01*
Y165529D01*
X135751D01*
Y166285D01*
X135751D01*
Y171028D01*
X135751D01*
Y171785D01*
X135751D01*
Y176529D01*
X130811D01*
Y175176D01*
X114206D01*
X114069Y175382D01*
X113506Y175758D01*
X112843Y175890D01*
X112600Y175842D01*
X106822Y181620D01*
X107205Y182543D01*
X113428D01*
X114380Y181591D01*
Y178585D01*
X119320D01*
Y183328D01*
X115527D01*
X114571Y184284D01*
X114536Y184638D01*
X115527Y185628D01*
X119320D01*
Y190062D01*
X120000Y190486D01*
X120679Y190062D01*
D02*
G37*
%LPC*%
G36*
X105354Y52246D02*
X100414D01*
Y51962D01*
X99541Y51655D01*
Y51655D01*
X94010D01*
Y48093D01*
X99541D01*
Y48093D01*
X100414Y47787D01*
Y47503D01*
X105354D01*
Y52246D01*
D02*
G37*
G36*
X96748Y65464D02*
X96046Y65324D01*
X95451Y64926D01*
X95053Y64331D01*
X94913Y63629D01*
X95053Y62926D01*
X95144Y62790D01*
Y59136D01*
X94010D01*
Y55573D01*
X99541D01*
X99541Y55573D01*
Y55573D01*
X99541Y55573D01*
X100431Y55309D01*
Y54983D01*
X105372D01*
Y59726D01*
X100431D01*
Y59400D01*
X99541Y59136D01*
X99541Y59136D01*
Y59136D01*
X99541Y59136D01*
X98407D01*
Y62871D01*
X98444Y62926D01*
X98584Y63629D01*
X98444Y64331D01*
X98046Y64926D01*
X97451Y65324D01*
X96748Y65464D01*
D02*
G37*
G36*
X91080Y101655D02*
X90484Y101065D01*
X85741D01*
Y96124D01*
X90484D01*
Y96552D01*
X91080Y97306D01*
X95823D01*
Y101655D01*
X91080D01*
Y101655D01*
D02*
G37*
G36*
X115000Y95156D02*
X114216Y95053D01*
X113486Y94751D01*
X112859Y94270D01*
X112378Y93642D01*
X112076Y92912D01*
X111972Y92129D01*
X112076Y91345D01*
X112378Y90615D01*
X112859Y89988D01*
X113486Y89507D01*
X114216Y89204D01*
X115000Y89101D01*
X115784Y89204D01*
X116514Y89507D01*
X117141Y89988D01*
X117622Y90615D01*
X117924Y91345D01*
X118027Y92129D01*
X117924Y92912D01*
X117622Y93642D01*
X117141Y94270D01*
X116514Y94751D01*
X115784Y95053D01*
X115000Y95156D01*
D02*
G37*
G36*
X129226Y94099D02*
X124089D01*
Y90502D01*
X116779Y83192D01*
X116558Y82861D01*
X116480Y82471D01*
Y81902D01*
X115656D01*
Y77553D01*
X118120D01*
X124059Y71614D01*
Y69143D01*
X129196D01*
Y74083D01*
X124474D01*
X119316Y79240D01*
Y81902D01*
X119316D01*
X119357Y82886D01*
X125630Y89159D01*
X129226D01*
Y94099D01*
D02*
G37*
%LPD*%
D10*
X57471Y56764D02*
D03*
Y50465D02*
D03*
X63051Y56764D02*
D03*
X63051Y50465D02*
D03*
X81207Y56780D02*
D03*
X81207Y50481D02*
D03*
X76551Y83825D02*
D03*
Y77526D02*
D03*
X82051Y83825D02*
D03*
Y77526D02*
D03*
X88113Y92295D02*
D03*
Y98594D02*
D03*
X104306Y92295D02*
D03*
Y98594D02*
D03*
X111500Y224150D02*
D03*
Y217850D02*
D03*
X94500Y224150D02*
D03*
Y217850D02*
D03*
X100000Y224150D02*
D03*
Y217850D02*
D03*
X105500Y224150D02*
D03*
X105500Y217850D02*
D03*
X109989Y148062D02*
D03*
X109989Y154361D02*
D03*
X98989Y148062D02*
D03*
X98989Y154361D02*
D03*
X77000Y224150D02*
D03*
X77000Y217850D02*
D03*
X82500Y224150D02*
D03*
Y217850D02*
D03*
X88000Y224150D02*
D03*
Y217850D02*
D03*
X60500Y224150D02*
D03*
Y217850D02*
D03*
X66000Y224150D02*
D03*
X66000Y217850D02*
D03*
X71500Y224150D02*
D03*
Y217850D02*
D03*
X104489Y148062D02*
D03*
X104489Y154361D02*
D03*
X73848Y148091D02*
D03*
Y154390D02*
D03*
X68348Y148091D02*
D03*
Y154390D02*
D03*
X140000Y147150D02*
D03*
Y140850D02*
D03*
X162000Y147150D02*
D03*
Y140850D02*
D03*
D11*
X102901Y57355D02*
D03*
X109201D02*
D03*
X88073Y77688D02*
D03*
X94372Y77688D02*
D03*
X102884Y49874D02*
D03*
X109183D02*
D03*
X55430Y105199D02*
D03*
X61729Y105199D02*
D03*
X155766Y64482D02*
D03*
X162065D02*
D03*
X155766Y69982D02*
D03*
X162065D02*
D03*
X132940Y85940D02*
D03*
X126641Y85940D02*
D03*
X132940Y80440D02*
D03*
X126641D02*
D03*
X123150Y188000D02*
D03*
X116850D02*
D03*
X139650Y211000D02*
D03*
X133350D02*
D03*
X139650Y205500D02*
D03*
X133350D02*
D03*
X139650Y200000D02*
D03*
X133350D02*
D03*
X139580Y174157D02*
D03*
X133281Y174157D02*
D03*
X139580Y168657D02*
D03*
X133281D02*
D03*
X139580Y163157D02*
D03*
X133281Y163157D02*
D03*
X123150Y180957D02*
D03*
X116850D02*
D03*
X86581Y148091D02*
D03*
X92880D02*
D03*
X92880Y154240D02*
D03*
X86581D02*
D03*
X41350Y163437D02*
D03*
X47650D02*
D03*
X41350Y168937D02*
D03*
X47650D02*
D03*
X41350Y174437D02*
D03*
X47650D02*
D03*
X41350Y191437D02*
D03*
X47650D02*
D03*
X41350Y185937D02*
D03*
X47650D02*
D03*
D12*
X75357Y56630D02*
D03*
X69058D02*
D03*
X75357Y50630D02*
D03*
X69058D02*
D03*
X126628Y71613D02*
D03*
X132927Y71613D02*
D03*
X126658Y91629D02*
D03*
X132957D02*
D03*
X41350Y180120D02*
D03*
X47650D02*
D03*
X84701Y240000D02*
D03*
X97299Y240000D02*
D03*
D13*
X94550Y83640D02*
D03*
X87896Y83640D02*
D03*
D14*
X67874Y95347D02*
D03*
Y89048D02*
D03*
X104306Y86027D02*
D03*
X104306Y79728D02*
D03*
X62497Y154390D02*
D03*
Y148091D02*
D03*
X80348Y154390D02*
D03*
Y148091D02*
D03*
X15000Y123350D02*
D03*
Y129650D02*
D03*
X22500Y123350D02*
D03*
Y129650D02*
D03*
X30000Y123350D02*
D03*
Y129650D02*
D03*
X37500Y123350D02*
D03*
Y129650D02*
D03*
D15*
X96776Y57355D02*
D03*
Y49874D02*
D03*
X87327D02*
D03*
X87327Y53614D02*
D03*
X87327Y57355D02*
D03*
X155724Y140260D02*
D03*
X155724Y144000D02*
D03*
X155724Y147740D02*
D03*
X146276Y147740D02*
D03*
Y140260D02*
D03*
D16*
X81387Y89639D02*
D03*
Y92198D02*
D03*
Y94757D02*
D03*
X74694Y89639D02*
D03*
X74694Y94757D02*
D03*
X58926Y111070D02*
D03*
Y113629D02*
D03*
Y116188D02*
D03*
X52233Y111070D02*
D03*
X52233Y116188D02*
D03*
D17*
X141731Y91348D02*
D03*
X141731Y88788D02*
D03*
Y86229D02*
D03*
Y83670D02*
D03*
X141731Y81111D02*
D03*
Y78552D02*
D03*
Y75993D02*
D03*
X164369Y91348D02*
D03*
Y88788D02*
D03*
X164369Y86229D02*
D03*
X164369Y83670D02*
D03*
Y81111D02*
D03*
Y78552D02*
D03*
Y75993D02*
D03*
D18*
X99160Y91409D02*
D03*
Y99480D02*
D03*
X93451D02*
D03*
Y91409D02*
D03*
D19*
X162500Y198000D02*
D03*
Y178000D02*
D03*
Y188000D02*
D03*
D20*
X81339Y175886D02*
D03*
X84488D02*
D03*
X87638D02*
D03*
X90787D02*
D03*
X93937D02*
D03*
X97087D02*
D03*
X98661D02*
D03*
X95512D02*
D03*
X92362D02*
D03*
X89213D02*
D03*
X86063D02*
D03*
X82913D02*
D03*
X97087Y199114D02*
D03*
X93937D02*
D03*
X90787D02*
D03*
X87638D02*
D03*
X84488D02*
D03*
X81339D02*
D03*
X82913D02*
D03*
X86063D02*
D03*
X89213D02*
D03*
X92362D02*
D03*
X95512D02*
D03*
X98661D02*
D03*
D21*
X90000Y187500D02*
D03*
D22*
X101614Y180413D02*
D03*
Y183563D02*
D03*
Y186713D02*
D03*
Y189862D02*
D03*
Y193012D02*
D03*
Y196161D02*
D03*
Y194587D02*
D03*
Y191437D02*
D03*
Y188287D02*
D03*
Y185138D02*
D03*
Y181988D02*
D03*
Y178839D02*
D03*
X78386Y194587D02*
D03*
Y191437D02*
D03*
Y188287D02*
D03*
Y185138D02*
D03*
Y181988D02*
D03*
Y178839D02*
D03*
Y180413D02*
D03*
Y183563D02*
D03*
Y186713D02*
D03*
Y189862D02*
D03*
Y193012D02*
D03*
Y196161D02*
D03*
D23*
X122835Y225713D02*
D03*
X118380Y221259D02*
D03*
X126724Y221824D02*
D03*
X122269Y217370D02*
D03*
X130613Y217935D02*
D03*
X126159Y213480D02*
D03*
X121506Y155887D02*
D03*
X117051Y151433D02*
D03*
X125960D02*
D03*
X121506Y146979D02*
D03*
X44949Y155942D02*
D03*
X40495Y151488D02*
D03*
X48838Y152053D02*
D03*
X44384Y147599D02*
D03*
X52727Y148164D02*
D03*
X48273Y143710D02*
D03*
D24*
X39773Y225727D02*
D03*
X44227Y221273D02*
D03*
D25*
X136559Y180957D02*
D03*
X134000D02*
D03*
X131441D02*
D03*
Y188043D02*
D03*
X134000D02*
D03*
X136559D02*
D03*
D26*
X15000Y107350D02*
D03*
Y113650D02*
D03*
X22500Y107350D02*
D03*
Y113650D02*
D03*
X30000Y107350D02*
D03*
Y113650D02*
D03*
X37500Y107350D02*
D03*
Y113650D02*
D03*
D27*
X39884Y216545D02*
D03*
X44338Y212091D02*
D03*
X48773Y225727D02*
D03*
X53227Y221273D02*
D03*
X125996Y160378D02*
D03*
X130450Y155923D02*
D03*
D28*
X113500Y82188D02*
D03*
Y77267D02*
D03*
D29*
X117486Y79728D02*
D03*
X109514D02*
D03*
D30*
X91000Y240000D02*
D03*
D31*
X76438Y212913D02*
X84488D01*
X71500Y217850D02*
X76438Y212913D01*
X130613Y217935D02*
X135000Y222322D01*
X126824Y221824D02*
X131000Y226000D01*
X126724Y221824D02*
X126824D01*
X122835Y225713D02*
X127000Y229878D01*
X139650Y200000D02*
X145500D01*
X139650Y205500D02*
X145500D01*
X139650Y211000D02*
X145500D01*
X145500Y163157D02*
X145500Y163157D01*
X139580Y163157D02*
X145500D01*
X139580Y168657D02*
X145500D01*
X139580Y174157D02*
X145500D01*
X109989Y142390D02*
X110000Y142400D01*
X104489Y142390D02*
X104500Y142400D01*
X98989Y142390D02*
X98989Y142390D01*
Y148062D01*
X62497Y154390D02*
Y158997D01*
Y154361D02*
Y154390D01*
Y158997D02*
X65900Y162400D01*
X81657D01*
X112843Y174157D02*
X133281D01*
Y168657D02*
Y173602D01*
Y163157D02*
Y168657D01*
X130450Y155923D02*
Y156000D01*
X125960Y151433D02*
X130450Y155923D01*
X121428Y147056D02*
X121500D01*
X117051Y151433D02*
X121428Y147056D01*
X114127Y154361D02*
X117000Y151488D01*
X109989Y154361D02*
X114127D01*
X125960Y160378D02*
X125996D01*
X125935D02*
X125960D01*
X121500Y155942D02*
X125935Y160378D01*
X120337Y166000D02*
X125960Y160378D01*
X106087Y166000D02*
X120337D01*
X98661Y173425D02*
X106087Y166000D01*
X98661Y173425D02*
Y175886D01*
X109989Y154361D02*
Y156948D01*
X97087Y169850D02*
X109989Y156948D01*
X97087Y169850D02*
Y175886D01*
X98989Y154361D02*
Y163011D01*
X93937Y175886D02*
Y176000D01*
X92880Y148091D02*
Y153980D01*
X79107Y159500D02*
X87000D01*
X90787Y163287D01*
X68348Y155000D02*
Y158267D01*
X71080Y161000D01*
X83348D01*
X89213Y166865D01*
X57500Y159000D02*
X63500Y165000D01*
X77500D01*
X44081Y139500D02*
Y139518D01*
X48273Y143710D01*
X39920Y143000D02*
Y143135D01*
X44384Y147599D01*
X36063Y147000D02*
Y147056D01*
X40495Y151488D01*
X36000Y163500D02*
X36063Y163437D01*
X41350D01*
X36000Y168937D02*
X41350D01*
X36000Y174437D02*
X41350D01*
X36000Y180120D02*
X41350D01*
X36000Y185937D02*
X41350D01*
X36000Y191437D02*
X41350D01*
X66000Y173500D02*
X71339Y178839D01*
X64500Y172000D02*
X66000Y173500D01*
X71339Y178839D02*
X77500D01*
X61269Y172000D02*
X64500D01*
X45476Y155442D02*
X45711D01*
X45449D02*
X45476D01*
X45211Y155942D02*
X61269Y172000D01*
X48919Y152000D02*
X49273D01*
X52727Y148000D02*
Y148164D01*
X48838Y152053D02*
X52727Y148164D01*
X53500Y174437D02*
Y174500D01*
X67913Y180413D02*
X78000D01*
X61937Y174437D02*
X67913Y180413D01*
X47500Y174157D02*
X47650Y174007D01*
Y168937D02*
Y174007D01*
Y163437D02*
Y168787D01*
X61063Y185937D02*
X61862Y185138D01*
X61000Y186000D02*
X61063Y185937D01*
X61862Y185138D02*
X78386D01*
X66563Y183563D02*
X78386D01*
X63120Y180120D02*
X66563Y183563D01*
X47773Y180120D02*
X63120D01*
X67025Y191500D02*
X70238Y188287D01*
X126159Y213480D02*
X126159D01*
Y205685D02*
Y213480D01*
X122269Y217370D02*
X126159Y213480D01*
X118380Y221259D02*
X122139Y217500D01*
X111500Y224150D02*
Y230500D01*
X105500Y224150D02*
Y230500D01*
X100000Y224150D02*
Y230500D01*
X94500Y224150D02*
Y230500D01*
X88000Y224150D02*
Y230500D01*
X82500Y224150D02*
Y230500D01*
X77000Y230500D02*
X77000Y230500D01*
Y224150D02*
Y230500D01*
X71500Y224150D02*
Y230500D01*
X66000Y230500D02*
X66000Y230500D01*
Y224150D02*
Y230500D01*
X60500Y224150D02*
Y230500D01*
X67087Y194781D02*
X72006Y189862D01*
X67667Y196181D02*
X72409Y191439D01*
X35500Y230000D02*
X39773Y225727D01*
X22500Y102500D02*
Y107350D01*
X30000Y102500D02*
Y107350D01*
X37500Y102500D02*
Y107350D01*
X30000Y113500D02*
X30000Y113500D01*
X15000Y114000D02*
X15000Y114000D01*
X105500Y217850D02*
X105500Y217850D01*
X100000Y217850D02*
X105500D01*
X99350D02*
X99500Y218000D01*
X94500Y217850D02*
X99350D01*
X95512Y199114D02*
Y204371D01*
X97000Y208500D02*
Y208677D01*
X97087Y208764D01*
X88000Y217850D02*
X97087Y208764D01*
X82500Y217850D02*
X87650D01*
X77000D02*
X82500D01*
X60500D02*
X66000D01*
X60000D02*
X60500D01*
X66000D02*
X70100D01*
X44838Y211662D02*
X50519Y205981D01*
X78386Y186713D02*
X83988D01*
Y181988D02*
X84000Y182000D01*
X78386Y181988D02*
X83988D01*
X87500Y193500D02*
X87638Y193638D01*
Y199114D01*
X53227Y216273D02*
Y221000D01*
X44227Y221273D02*
X44546D01*
X44227Y220888D02*
Y221000D01*
X39884Y216545D02*
X44227Y220888D01*
X62497Y142390D02*
Y148091D01*
X113594Y185138D02*
X116500Y188043D01*
X68348Y142390D02*
Y148091D01*
X73848Y142390D02*
Y148091D01*
X86848D02*
X86997Y148240D01*
X80348Y148091D02*
X86581D01*
X86848D01*
X101500Y185138D02*
X101614D01*
X133350Y205500D02*
Y211000D01*
Y200000D02*
Y205500D01*
X96012Y193012D02*
X101614D01*
X96000Y193000D02*
X96012Y193012D01*
X101614Y196161D02*
X103661D01*
X109213Y186713D02*
X114500Y192000D01*
X129350Y196000D02*
X133350Y200000D01*
X128500Y196000D02*
X129350D01*
X114500Y192000D02*
X124500D01*
X128500Y196000D01*
X93937Y199114D02*
Y203464D01*
X61500Y99629D02*
Y104971D01*
X74694Y85906D02*
X76000Y84600D01*
X74694Y85906D02*
Y89639D01*
X51550Y110928D02*
X51613Y110865D01*
Y109016D02*
Y110865D01*
Y109016D02*
X55430Y105199D01*
X106278Y52780D02*
Y53498D01*
Y52780D02*
X109183Y49874D01*
X109000Y62194D02*
X109201Y61994D01*
Y57355D02*
Y61994D01*
X58926Y116188D02*
X65059D01*
X84341Y53614D02*
X87219D01*
X81207Y50481D02*
X84341Y53614D01*
X92120Y53629D02*
X92134Y53614D01*
X69058Y50630D02*
X73457Y46231D01*
X57471Y50465D02*
X62835D01*
X52731D02*
X57471D01*
X162065Y64547D02*
Y69982D01*
Y64482D02*
X167500D01*
X82510Y77526D02*
X82564Y77580D01*
X76551Y83825D02*
X81912D01*
X81966Y83879D01*
X87207D02*
X87261Y83825D01*
X55579Y99629D02*
Y105043D01*
X61500Y104971D02*
X61729Y105199D01*
X67874Y89048D02*
X70955Y92129D01*
X81520Y92198D02*
X87569D01*
X89007Y99480D02*
X93451D01*
X99197D02*
X103307D01*
X104306Y92295D02*
X104408Y92193D01*
X99160Y91409D02*
X103615D01*
X104408Y86042D02*
Y92193D01*
X104306Y79728D02*
X108700D01*
X87896Y83640D02*
X93316Y89060D01*
Y91348D01*
X88073Y77688D02*
Y83387D01*
X99748Y77688D02*
X99748Y77688D01*
X126641Y76163D02*
Y80440D01*
Y76163D02*
X126658Y76146D01*
X126641Y80440D02*
Y85391D01*
X141731Y81111D02*
X150000D01*
X83799Y46231D02*
X83892D01*
X73457D02*
X83799D01*
X141731Y91348D02*
X149976D01*
X150000Y91371D01*
X141731Y88788D02*
X148340D01*
X150000Y87129D01*
X132957Y91629D02*
X138356Y86229D01*
X141731D01*
X141788D01*
X125502Y71613D02*
X126628D01*
X117500Y82471D02*
X126658Y91629D01*
X117500Y79615D02*
X125502Y71613D01*
X68101Y94757D02*
X74694D01*
X67874Y95347D02*
Y109279D01*
X63496Y113658D02*
X67874Y109279D01*
X59000Y113658D02*
X63496D01*
X94568Y77688D02*
X99748D01*
X72619Y77526D02*
X76551D01*
X72272Y77873D02*
X72619Y77526D01*
X81387Y94757D02*
Y99416D01*
X81451Y99480D01*
X52500Y127000D02*
Y140000D01*
X57500Y145000D01*
Y159000D01*
X52233Y116188D02*
Y126733D01*
X52500Y127000D01*
X20000Y192500D02*
X25081Y197581D01*
X68580D01*
X28681Y196181D02*
X67667D01*
X30000Y192500D02*
X32281Y194781D01*
X67087D01*
X25000Y192500D02*
X28681Y196181D01*
X25000Y185500D02*
Y192500D01*
X15000Y107350D02*
Y107500D01*
X37500Y114150D02*
X37500Y123350D01*
Y123701D01*
X15000Y102500D02*
Y107350D01*
X76214Y194587D02*
X78386D01*
X23030Y204581D02*
X81193D01*
X53227Y216273D02*
X60719Y208781D01*
X83677D01*
X44227Y221273D02*
X58119Y207381D01*
X83097D01*
X50519Y205981D02*
X82517D01*
X76619Y196161D02*
X78386D01*
X70238Y188287D02*
X78386D01*
X72006Y189862D02*
X78386D01*
X72409Y191439D02*
X73150D01*
X73151Y191437D01*
X78386D01*
X68580Y197581D02*
X73150Y193012D01*
X78386D01*
X81339Y199114D02*
Y201661D01*
X79819Y203181D02*
X81339Y201661D01*
X23610Y203181D02*
X79819D01*
X17800Y157200D02*
Y193411D01*
Y157200D02*
X37500Y137500D01*
Y129650D02*
Y137500D01*
X71801Y199000D02*
X76214Y194587D01*
X17800Y193411D02*
X23389Y199000D01*
X71801D01*
X22909Y200500D02*
X72281D01*
X16400Y193991D02*
X22909Y200500D01*
X72281D02*
X76619Y196161D01*
X15000Y194571D02*
X23610Y203181D01*
X16400Y151100D02*
Y193991D01*
Y151100D02*
X30000Y137500D01*
Y129650D02*
Y137500D01*
X15000Y145000D02*
Y194571D01*
Y145000D02*
X22500Y137500D01*
Y129650D02*
Y137500D01*
X13600Y195151D02*
X23030Y204581D01*
X13600Y138900D02*
Y195151D01*
Y138900D02*
X15000Y137500D01*
Y129650D02*
Y137500D01*
X116000Y197506D02*
Y213500D01*
X108761Y188287D02*
X126159Y205685D01*
X108356Y189862D02*
X116000Y197506D01*
X93937Y168063D02*
X98989Y163011D01*
X77500Y165000D02*
X84488Y171988D01*
Y175886D01*
X81657Y162400D02*
X87638Y168381D01*
X84488Y212913D02*
X93937Y203464D01*
X97299Y240000D02*
X102500D01*
X102500Y240000D01*
X91000Y235000D02*
Y240000D01*
X91000Y240000D02*
X91000Y240000D01*
X40000Y240000D02*
X84701D01*
X91000Y208883D02*
X95512Y204371D01*
X91000Y208883D02*
Y211000D01*
X107500Y200000D02*
Y210000D01*
X103661Y196161D02*
X107500Y200000D01*
X111000Y196000D02*
Y205500D01*
X81193Y204581D02*
X84488Y201286D01*
Y199114D02*
Y201286D01*
X82517Y205981D02*
X86063Y202435D01*
Y199114D02*
Y202435D01*
X83677Y208781D02*
X90787Y201671D01*
Y199114D02*
Y201671D01*
X83097Y207381D02*
X89213Y201266D01*
Y200000D02*
Y201266D01*
X101614Y181988D02*
X105012D01*
X112843Y174157D01*
X102000Y183563D02*
X113850D01*
X101614Y185138D02*
X113594D01*
X101614Y186713D02*
X109213D01*
X101614Y191437D02*
X106437D01*
X111000Y196000D01*
X101614Y189862D02*
X108356D01*
X101614Y188287D02*
X108761D01*
X87638Y168381D02*
Y175886D01*
X89213Y166865D02*
Y175886D01*
X95512Y169075D02*
Y175886D01*
Y169075D02*
X104500Y160087D01*
X93937Y168063D02*
Y175886D01*
X92362Y159781D02*
Y175886D01*
X90787Y163287D02*
Y175886D01*
X100000Y217850D02*
X102500Y215350D01*
Y207500D02*
Y215350D01*
X98661Y200000D02*
Y203661D01*
X102500Y207500D01*
X106147Y98482D02*
X110000Y94629D01*
X155500Y89500D02*
X158771Y86229D01*
X164369D01*
X62500Y127000D02*
X70500Y135000D01*
X114500D01*
X72500Y127000D02*
X87000Y112500D01*
X114500Y135000D02*
X155500Y94000D01*
Y89500D02*
Y94000D01*
X87000Y112500D02*
X134000D01*
X152500Y94000D01*
Y88500D02*
Y94000D01*
Y88500D02*
X157330Y83670D01*
X164369D01*
X12000Y212000D02*
X40000Y240000D01*
X12000Y78000D02*
Y212000D01*
Y78000D02*
X19000Y71000D01*
X73848Y154240D02*
X79107Y159500D01*
X81451Y92129D02*
X81520Y92198D01*
X70955Y92129D02*
X81451D01*
X117500Y79615D02*
Y82471D01*
X86581Y154000D02*
X92362Y159781D01*
X80260Y154240D02*
X86581D01*
X80000Y154500D02*
X80260Y154240D01*
X113850Y183563D02*
X117000Y180413D01*
X22500Y114000D02*
Y123701D01*
X22000Y113500D02*
X22500Y114000D01*
X44546Y221273D02*
X49000Y225727D01*
X104500Y154240D02*
Y160087D01*
X37500Y114150D02*
X38000Y113650D01*
X83892Y46231D02*
X87536Y49874D01*
X111500Y218000D02*
X116000Y213500D01*
X47650Y186000D02*
X61000D01*
X15000Y114000D02*
Y123701D01*
X110000Y142400D02*
Y148500D01*
X104500Y142400D02*
Y148500D01*
X104306Y98482D02*
X106147D01*
X103307Y99480D02*
X104306Y98482D01*
X87327Y53614D02*
X92134D01*
X81387Y99416D02*
Y99516D01*
X77194Y77526D02*
X82510D01*
X76872Y77848D02*
X77194Y77526D01*
X92880Y154240D02*
X99000D01*
X92500Y154361D02*
X92880Y153980D01*
X30000Y113500D02*
Y123701D01*
X62835Y50465D02*
X63000Y50630D01*
X97087Y199289D02*
Y208764D01*
X45476Y155442D02*
X48919Y152000D01*
X47650Y191500D02*
X67025D01*
X93451Y91371D02*
X93489Y91409D01*
X81966Y83879D02*
X87207D01*
X44838Y211662D02*
Y212500D01*
X132923Y91629D02*
X132940Y91612D01*
X132742Y91629D02*
X132850Y91521D01*
X55426Y105196D02*
X55579Y105043D01*
X47500Y168937D02*
X47650Y168787D01*
Y174437D02*
X53500D01*
X61937D01*
X132883Y174000D02*
X133281Y173602D01*
D32*
X134000Y140850D02*
X140000Y140850D01*
X162000Y140850D02*
X167000D01*
X151000Y148000D02*
X155500D01*
X140000Y147150D02*
Y152500D01*
X162000Y147150D02*
Y152500D01*
X151000Y144000D02*
X155724D01*
X140740Y140260D02*
X146276D01*
X155724D02*
X161409D01*
X162000Y140850D01*
X140000Y141000D02*
X140740Y140260D01*
D33*
X123150Y188000D02*
X131228D01*
X123150Y180957D02*
X131441D01*
X137364Y75993D02*
X140231D01*
X96776Y49874D02*
X102884D01*
X159269Y75993D02*
X164369D01*
X155658Y72382D02*
X159269Y75993D01*
X135058Y78552D02*
X140231D01*
X135356Y83670D02*
X140231D01*
X133021Y86005D02*
X135356Y83670D01*
X133021Y86005D02*
Y86148D01*
X132940Y76146D02*
Y80440D01*
X133506Y72135D02*
X137364Y75993D01*
X132742Y72135D02*
X133506D01*
X133000Y86027D02*
X133021Y86005D01*
Y80589D02*
X135058Y78552D01*
X133021Y80589D02*
Y86005D01*
X155658Y69982D02*
Y72382D01*
D34*
X102884Y49874D02*
X103028D01*
X96776Y57355D02*
X102835D01*
X81629Y57355D02*
X87327D01*
X75357Y50630D02*
Y56433D01*
Y56630D02*
X80904D01*
X57471Y56764D02*
X62000D01*
X52635D02*
X57471D01*
X155766Y64759D02*
Y69982D01*
X69058Y56630D02*
X69192Y56764D01*
X80710Y68282D01*
X94550Y83640D02*
X99748D01*
X111819Y64482D02*
X113472Y62829D01*
X153836D01*
X155489Y64482D01*
X80710Y68282D02*
X108047D01*
X111819Y64511D01*
Y64482D02*
Y64511D01*
X96748Y63629D02*
X96776D01*
X155489Y64482D02*
X155766D01*
X155800D01*
X80904Y56630D02*
X81629Y57355D01*
X75087Y56703D02*
X75357Y56433D01*
X102835Y57355D02*
X103109Y57629D01*
X96776Y57355D02*
Y63629D01*
X63051Y56764D02*
X69192D01*
D35*
X149000Y198000D02*
X162500D01*
X149000Y178000D02*
X162500Y178000D01*
D36*
X155111Y81111D02*
X164369D01*
X140500Y66500D02*
X155111Y81111D01*
X116000Y66500D02*
X140500D01*
X111000Y71500D02*
X116000Y66500D01*
X28500Y71500D02*
X111000D01*
X19000Y81000D02*
X28500Y71500D01*
D37*
X137030Y188043D02*
X162457D01*
X162500Y188000D01*
D38*
X134000Y191000D02*
D03*
D39*
X112500Y127000D02*
D03*
X102500D02*
D03*
X92500D02*
D03*
X82500D02*
D03*
X62500D02*
D03*
X72500D02*
D03*
X19000Y91000D02*
D03*
Y81000D02*
D03*
D40*
X52500Y127000D02*
D03*
D41*
X19000Y71000D02*
D03*
D42*
X115000Y92129D02*
D03*
D43*
X21550Y234150D02*
D03*
D44*
X84488Y212913D02*
D03*
X134000Y140850D02*
D03*
X167000D02*
D03*
X151000Y148000D02*
D03*
X140000Y152500D02*
D03*
X162000D02*
D03*
X151000Y144000D02*
D03*
X135000Y222322D02*
D03*
X131000Y226000D02*
D03*
X127000Y229878D02*
D03*
X145500Y200000D02*
D03*
Y205500D02*
D03*
Y211000D02*
D03*
Y163157D02*
D03*
Y168657D02*
D03*
Y174157D02*
D03*
X109989Y142390D02*
D03*
X104489D02*
D03*
X98989Y142390D02*
D03*
X112843Y174157D02*
D03*
X44081Y139500D02*
D03*
X39920Y143000D02*
D03*
X36063Y147000D02*
D03*
X36000Y163500D02*
D03*
Y168937D02*
D03*
Y174437D02*
D03*
Y180120D02*
D03*
Y185937D02*
D03*
Y191437D02*
D03*
X66000Y173500D02*
D03*
X53500Y174500D02*
D03*
X61063Y185937D02*
D03*
X126159Y205685D02*
D03*
X116000Y213500D02*
D03*
X111500Y230500D02*
D03*
X105500D02*
D03*
X100000Y230500D02*
D03*
X94500D02*
D03*
X88000D02*
D03*
X82500D02*
D03*
X77000Y230500D02*
D03*
X71500D02*
D03*
X66000Y230500D02*
D03*
X60500D02*
D03*
X35500Y230000D02*
D03*
X15000Y102500D02*
D03*
X22500Y102500D02*
D03*
X30000Y102500D02*
D03*
X37500Y102500D02*
D03*
X97000Y208500D02*
D03*
X62497Y142390D02*
D03*
X68348D02*
D03*
X73848D02*
D03*
X128500Y196000D02*
D03*
X20000Y192500D02*
D03*
X30000D02*
D03*
X25000Y185500D02*
D03*
X102500Y240000D02*
D03*
X91000Y235000D02*
D03*
Y211000D02*
D03*
X107500Y210000D02*
D03*
X111000Y205500D02*
D03*
X102500Y207500D02*
D03*
X144788Y181382D02*
D03*
X141588D02*
D03*
X131585Y193627D02*
D03*
X134248Y195401D02*
D03*
X137439Y195635D02*
D03*
X140501Y194705D02*
D03*
X143701D02*
D03*
X146901D02*
D03*
X76050Y106150D02*
D03*
X78550Y111150D02*
D03*
X81050Y106150D02*
D03*
X86050D02*
D03*
X91050D02*
D03*
X96050D02*
D03*
X101050D02*
D03*
X106050D02*
D03*
X108550Y171150D02*
D03*
X106050Y176150D02*
D03*
X113550Y101150D02*
D03*
X111050Y106150D02*
D03*
X118550Y71150D02*
D03*
Y101150D02*
D03*
X116050Y106150D02*
D03*
X118550Y171150D02*
D03*
X123550Y51150D02*
D03*
X121050Y96150D02*
D03*
X123550Y101150D02*
D03*
X121050Y106150D02*
D03*
X123550Y171150D02*
D03*
X128550Y51150D02*
D03*
X126050Y56150D02*
D03*
X128550Y101150D02*
D03*
X126050Y106150D02*
D03*
Y166150D02*
D03*
X128550Y171150D02*
D03*
X133550Y51150D02*
D03*
X131050Y56150D02*
D03*
X133550Y101150D02*
D03*
X131050Y106150D02*
D03*
X133550Y231150D02*
D03*
X138550Y51150D02*
D03*
X136050Y56150D02*
D03*
X138550Y101150D02*
D03*
Y231150D02*
D03*
X143550Y51150D02*
D03*
X141050Y56150D02*
D03*
Y96150D02*
D03*
Y216150D02*
D03*
X143550Y221150D02*
D03*
X141050Y226150D02*
D03*
X143550Y231150D02*
D03*
X148550Y51150D02*
D03*
X146050Y56150D02*
D03*
Y66150D02*
D03*
X148550Y71150D02*
D03*
Y111150D02*
D03*
X146050Y216150D02*
D03*
X148550Y221150D02*
D03*
X146050Y226150D02*
D03*
X148550Y231150D02*
D03*
X153550Y51150D02*
D03*
X151050Y56150D02*
D03*
Y66150D02*
D03*
Y106150D02*
D03*
X153550Y111150D02*
D03*
X151050Y166150D02*
D03*
X153550Y171150D02*
D03*
X151050Y206150D02*
D03*
X153550Y211150D02*
D03*
X151050Y216150D02*
D03*
X153550Y221150D02*
D03*
X151050Y226150D02*
D03*
X153550Y231150D02*
D03*
X158550Y51150D02*
D03*
X156050Y56150D02*
D03*
Y76150D02*
D03*
X158550Y101150D02*
D03*
X156050Y106150D02*
D03*
X158550Y111150D02*
D03*
X156050Y166150D02*
D03*
X158550Y171150D02*
D03*
X156050Y206150D02*
D03*
X158550Y211150D02*
D03*
X156050Y216150D02*
D03*
X158550Y221150D02*
D03*
X156050Y226150D02*
D03*
X158550Y231150D02*
D03*
X163550Y51150D02*
D03*
X161050Y56150D02*
D03*
Y96150D02*
D03*
X163550Y101150D02*
D03*
X161050Y106150D02*
D03*
X163550Y111150D02*
D03*
X161050Y166150D02*
D03*
X163550Y171150D02*
D03*
X161050Y206150D02*
D03*
X163550Y211150D02*
D03*
X161050Y216150D02*
D03*
X163550Y221150D02*
D03*
X161050Y226150D02*
D03*
X163550Y231150D02*
D03*
X166050Y56150D02*
D03*
Y96150D02*
D03*
Y106150D02*
D03*
Y166150D02*
D03*
Y206150D02*
D03*
Y216150D02*
D03*
Y226150D02*
D03*
D45*
X106278Y53498D02*
D03*
X109000Y62194D02*
D03*
X65059Y116188D02*
D03*
X92120Y53629D02*
D03*
X52731Y50465D02*
D03*
X52635Y56764D02*
D03*
X167500Y64482D02*
D03*
X55579Y99629D02*
D03*
X61500D02*
D03*
X99748Y77688D02*
D03*
X99748Y83640D02*
D03*
X126658Y76146D02*
D03*
X83799Y46231D02*
D03*
X150000Y81111D02*
D03*
Y91371D02*
D03*
Y87129D02*
D03*
X96748Y63629D02*
D03*
X72272Y77873D02*
D03*
X81451Y99480D02*
D03*
X110000Y94629D02*
D03*
X132940Y76146D02*
D03*
D46*
X149000Y178000D02*
D03*
Y198000D02*
D03*
D47*
X90000Y187303D02*
D03*
Y192421D02*
D03*
X94724Y187303D02*
D03*
Y192028D02*
D03*
X90000Y182579D02*
D03*
X94724Y182579D02*
D03*
X85276Y187303D02*
D03*
Y192028D02*
D03*
Y182579D02*
D03*
D48*
X113500Y75200D02*
D03*
X113500Y79728D02*
D03*
Y84255D02*
D03*
M02*
