M48
;Layer_Color=9474304
;FILE_FORMAT=2:5
INCH,LZ
;TYPE=PLATED
T1F00S00C0.00800
T2F00S00C0.01181
T3F00S00C0.01575
T4F00S00C0.01800
T5F00S00C0.03543
T6F00S00C0.04016
T7F00S00C0.11300
%
T01
X0052731Y0050465
X0052635Y0056764
X0072272Y0077873
X0099748Y0077688
X0099748Y008364
X011Y0094629
X011355Y010115
X011855
X012355
X012855
X013355
X013855
X014105Y009615
X012105
Y010615
X011605
X011105
X010605
X010105
X009605
X009105
X008605
X008105
X007605
X007855Y011115
X0081451Y009948
X00615Y0099629
X0055579
X00375Y01025
X003Y01025
X00225Y01025
X0015Y01025
X0065059Y0116188
X0062497Y014239
X0068348
X0073848
X0098989
X0104489Y014239
X0109989
X0134Y014085
X014Y01525
X012605Y016615
X012355Y017115
X011855
X0112843Y0174157
X010855Y017115
X010605Y017615
X012855Y017115
X0141588Y0181382
X0144788
X0143701Y0194705
X0140501
X0131585Y0193627
X0061063Y0185937
X0066Y01735
X00535Y01745
X0036Y0174437
Y0168937
Y01635
X0036063Y0147
X003992Y0143
X0044081Y01395
X0036Y018012
Y0185937
Y0191437
X003Y01925
X002
X0025Y01855
X012605Y010615
X013105
X013294Y0076146
X0126658
X011855Y007115
X0109Y0062194
X0106278Y0053498
X009212Y0053629
X0096748Y0063629
X0083799Y0046231
X012355Y005115
X012855
X013355
X013855
X014355
X014105Y005615
X013605
X013105
X012605
X014605
X015105
X015605
X016105
X016605
X016355Y005115
X015855
X015355
X014855
X014605Y006615
X015105
X014855Y007115
X015Y0081111
Y0087129
Y0091371
X015105Y010615
X015605
X016105
X016605
X016355Y010115
X015855
X016105Y009615
X016605
X016355Y011115
X015855
X015355
X014855
X0151Y0144
X0151Y0148
X0162Y01525
X016105Y016615
X015605
X015105
X015355Y017115
X015855
X016355
X016605Y016615
X01455Y0168657
Y0163157
Y0174157
X0146901Y0194705
X0167Y014085
X015605Y007615
X01675Y0064482
X016605Y020615
X016105
X015605
X015105
X01455Y02055
Y02
Y0211
X014605Y021615
X015105
X015605
X016105
X016605
X016355Y021115
X015855
X015355
Y022115
X014855
X014605Y022615
X015105
X015605
X016105
X016605
X016355Y022115
X015855
Y023115
X015355
X014855
X016355
X014355
X013855
X013355
X0131Y0226
X0135Y0222322
X014355Y022115
X014105Y021615
Y022615
X0127Y0229878
X01115Y02305
X01055
X01Y02305
X00945
X0088
X00825
X0077Y02305
X00715
X0066Y02305
X00605
X00355Y023
X0091Y0235
X01025Y024
Y02075
X0097Y02085
X0091Y0211
X0084488Y0212913
X01075Y021
X0111Y02055
X0116Y02135
X0126159Y0205685
X01285Y0196
X0134248Y0195401
X0137439Y0195635
T02
X0085276Y0182579
Y0187303
Y0192028
X009Y0192421
Y0187303
X0094724Y0187303
Y0192028
Y0182579
X009Y0182579
T03
X01135Y00752
X01135Y0079728
Y0084255
T04
X0149Y0178
Y0198
T05
X0019Y0071
Y0081
Y0091
X00525Y0127
X00625
X00725
X00825
X00925
X01025
X01125
T06
X0115Y0092129
T07
X002155Y023415
M30
