G04 Layer_Color=8421504*
%FSLAX25Y25*%
%MOIN*%
G70*
G01*
G75*
%ADD10R,0.03543X0.03740*%
%ADD11R,0.03740X0.03543*%
%ADD12R,0.03937X0.03740*%
%ADD13R,0.03583X0.03780*%
%ADD14R,0.03740X0.03937*%
%ADD15R,0.04331X0.02362*%
%ADD16O,0.05118X0.01378*%
%ADD17O,0.06299X0.01378*%
%ADD18R,0.03543X0.03150*%
%ADD19R,0.15984X0.05984*%
%ADD20R,0.00787X0.03543*%
%ADD22R,0.03543X0.00787*%
G04:AMPARAMS|DCode=23|XSize=35.43mil|YSize=37.4mil|CornerRadius=0mil|HoleSize=0mil|Usage=FLASHONLY|Rotation=315.000|XOffset=0mil|YOffset=0mil|HoleType=Round|Shape=Rectangle|*
%AMROTATEDRECTD23*
4,1,4,-0.02575,-0.00070,0.00070,0.02575,0.02575,0.00070,-0.00070,-0.02575,-0.02575,-0.00070,0.0*
%
%ADD23ROTATEDRECTD23*%

G04:AMPARAMS|DCode=24|XSize=35.43mil|YSize=37.4mil|CornerRadius=0mil|HoleSize=0mil|Usage=FLASHONLY|Rotation=45.000|XOffset=0mil|YOffset=0mil|HoleType=Round|Shape=Rectangle|*
%AMROTATEDRECTD24*
4,1,4,0.00070,-0.02575,-0.02575,0.00070,-0.00070,0.02575,0.02575,-0.00070,0.00070,-0.02575,0.0*
%
%ADD24ROTATEDRECTD24*%

%ADD25R,0.01378X0.03937*%
%ADD26R,0.03150X0.03150*%
G04:AMPARAMS|DCode=27|XSize=37.4mil|YSize=39.37mil|CornerRadius=0mil|HoleSize=0mil|Usage=FLASHONLY|Rotation=225.000|XOffset=0mil|YOffset=0mil|HoleType=Round|Shape=Rectangle|*
%AMROTATEDRECTD27*
4,1,4,-0.00070,0.02714,0.02714,-0.00070,0.00070,-0.02714,-0.02714,0.00070,-0.00070,0.02714,0.0*
%
%ADD27ROTATEDRECTD27*%

%ADD28R,0.02362X0.02559*%
%ADD29R,0.02461X0.03150*%
%ADD30R,0.03937X0.03937*%
%ADD64R,0.05118X0.05118*%
D10*
X57471Y56764D02*
D03*
Y50465D02*
D03*
X63051Y56764D02*
D03*
X63051Y50465D02*
D03*
X81207Y56780D02*
D03*
X81207Y50481D02*
D03*
X76551Y83825D02*
D03*
Y77526D02*
D03*
X82051Y83825D02*
D03*
Y77526D02*
D03*
X88113Y92295D02*
D03*
Y98594D02*
D03*
X104306Y92295D02*
D03*
Y98594D02*
D03*
X111500Y224150D02*
D03*
Y217850D02*
D03*
X94500Y224150D02*
D03*
Y217850D02*
D03*
X100000Y224150D02*
D03*
Y217850D02*
D03*
X105500Y224150D02*
D03*
X105500Y217850D02*
D03*
X109989Y148062D02*
D03*
X109989Y154361D02*
D03*
X98989Y148062D02*
D03*
X98989Y154361D02*
D03*
X77000Y224150D02*
D03*
X77000Y217850D02*
D03*
X82500Y224150D02*
D03*
Y217850D02*
D03*
X88000Y224150D02*
D03*
Y217850D02*
D03*
X60500Y224150D02*
D03*
Y217850D02*
D03*
X66000Y224150D02*
D03*
X66000Y217850D02*
D03*
X71500Y224150D02*
D03*
Y217850D02*
D03*
X104489Y148062D02*
D03*
X104489Y154361D02*
D03*
X73848Y148091D02*
D03*
Y154390D02*
D03*
X68348Y148091D02*
D03*
Y154390D02*
D03*
X140000Y147150D02*
D03*
Y140850D02*
D03*
X162000Y147150D02*
D03*
Y140850D02*
D03*
D11*
X102901Y57355D02*
D03*
X109201D02*
D03*
X88073Y77688D02*
D03*
X94372Y77688D02*
D03*
X102884Y49874D02*
D03*
X109183D02*
D03*
X55430Y105199D02*
D03*
X61729Y105199D02*
D03*
X155766Y64482D02*
D03*
X162065D02*
D03*
X155766Y69982D02*
D03*
X162065D02*
D03*
X132940Y85940D02*
D03*
X126641Y85940D02*
D03*
X132940Y80440D02*
D03*
X126641D02*
D03*
X123150Y188000D02*
D03*
X116850D02*
D03*
X139650Y211000D02*
D03*
X133350D02*
D03*
X139650Y205500D02*
D03*
X133350D02*
D03*
X139650Y200000D02*
D03*
X133350D02*
D03*
X139580Y174157D02*
D03*
X133281Y174157D02*
D03*
X139580Y168657D02*
D03*
X133281D02*
D03*
X139580Y163157D02*
D03*
X133281Y163157D02*
D03*
X123150Y180957D02*
D03*
X116850D02*
D03*
X86581Y148091D02*
D03*
X92880D02*
D03*
X92880Y154240D02*
D03*
X86581D02*
D03*
X41350Y163437D02*
D03*
X47650D02*
D03*
X41350Y168937D02*
D03*
X47650D02*
D03*
X41350Y174437D02*
D03*
X47650D02*
D03*
X41350Y191437D02*
D03*
X47650D02*
D03*
X41350Y185937D02*
D03*
X47650D02*
D03*
D12*
X75357Y56630D02*
D03*
X69058D02*
D03*
X75357Y50630D02*
D03*
X69058D02*
D03*
X126628Y71613D02*
D03*
X132927Y71613D02*
D03*
X126658Y91629D02*
D03*
X132957D02*
D03*
X41350Y180120D02*
D03*
X47650D02*
D03*
X84701Y240000D02*
D03*
X97299Y240000D02*
D03*
D13*
X94550Y83640D02*
D03*
X87896Y83640D02*
D03*
D14*
X67874Y95347D02*
D03*
Y89048D02*
D03*
X104306Y86027D02*
D03*
X104306Y79728D02*
D03*
X62497Y154390D02*
D03*
Y148091D02*
D03*
X80348Y154390D02*
D03*
Y148091D02*
D03*
X15000Y123350D02*
D03*
Y129650D02*
D03*
X22500Y123350D02*
D03*
Y129650D02*
D03*
X30000Y123350D02*
D03*
Y129650D02*
D03*
X37500Y123350D02*
D03*
Y129650D02*
D03*
D15*
X96776Y57355D02*
D03*
Y49874D02*
D03*
X87327D02*
D03*
X87327Y53614D02*
D03*
X87327Y57355D02*
D03*
X155724Y140260D02*
D03*
X155724Y144000D02*
D03*
X155724Y147740D02*
D03*
X146276Y147740D02*
D03*
Y140260D02*
D03*
D16*
X81387Y89639D02*
D03*
Y92198D02*
D03*
Y94757D02*
D03*
X74694Y89639D02*
D03*
X74694Y94757D02*
D03*
X58926Y111070D02*
D03*
Y113629D02*
D03*
Y116188D02*
D03*
X52233Y111070D02*
D03*
X52233Y116188D02*
D03*
D17*
X141731Y91348D02*
D03*
X141731Y88788D02*
D03*
Y86229D02*
D03*
Y83670D02*
D03*
X141731Y81111D02*
D03*
Y78552D02*
D03*
Y75993D02*
D03*
X164369Y91348D02*
D03*
Y88788D02*
D03*
X164369Y86229D02*
D03*
X164369Y83670D02*
D03*
Y81111D02*
D03*
Y78552D02*
D03*
Y75993D02*
D03*
D18*
X99160Y91409D02*
D03*
Y99480D02*
D03*
X93451D02*
D03*
Y91409D02*
D03*
D19*
X162500Y198000D02*
D03*
Y178000D02*
D03*
Y188000D02*
D03*
D20*
X81339Y175886D02*
D03*
X84488D02*
D03*
X87638D02*
D03*
X90787D02*
D03*
X93937D02*
D03*
X97087D02*
D03*
X98661D02*
D03*
X95512D02*
D03*
X92362D02*
D03*
X89213D02*
D03*
X86063D02*
D03*
X82913D02*
D03*
X97087Y199114D02*
D03*
X93937D02*
D03*
X90787D02*
D03*
X87638D02*
D03*
X84488D02*
D03*
X81339D02*
D03*
X82913D02*
D03*
X86063D02*
D03*
X89213D02*
D03*
X92362D02*
D03*
X95512D02*
D03*
X98661D02*
D03*
D22*
X101614Y180413D02*
D03*
Y183563D02*
D03*
Y186713D02*
D03*
Y189862D02*
D03*
Y193012D02*
D03*
Y196161D02*
D03*
Y194587D02*
D03*
Y191437D02*
D03*
Y188287D02*
D03*
Y185138D02*
D03*
Y181988D02*
D03*
Y178839D02*
D03*
X78386Y194587D02*
D03*
Y191437D02*
D03*
Y188287D02*
D03*
Y185138D02*
D03*
Y181988D02*
D03*
Y178839D02*
D03*
Y180413D02*
D03*
Y183563D02*
D03*
Y186713D02*
D03*
Y189862D02*
D03*
Y193012D02*
D03*
Y196161D02*
D03*
D23*
X122835Y225713D02*
D03*
X118380Y221259D02*
D03*
X126724Y221824D02*
D03*
X122269Y217370D02*
D03*
X130613Y217935D02*
D03*
X126159Y213480D02*
D03*
X121506Y155887D02*
D03*
X117051Y151433D02*
D03*
X125960D02*
D03*
X121506Y146979D02*
D03*
X44949Y155942D02*
D03*
X40495Y151488D02*
D03*
X48838Y152053D02*
D03*
X44384Y147599D02*
D03*
X52727Y148164D02*
D03*
X48273Y143710D02*
D03*
D24*
X39773Y225727D02*
D03*
X44227Y221273D02*
D03*
D25*
X136559Y180957D02*
D03*
X134000D02*
D03*
X131441D02*
D03*
Y188043D02*
D03*
X134000D02*
D03*
X136559D02*
D03*
D26*
X15000Y107350D02*
D03*
Y113650D02*
D03*
X22500Y107350D02*
D03*
Y113650D02*
D03*
X30000Y107350D02*
D03*
Y113650D02*
D03*
X37500Y107350D02*
D03*
Y113650D02*
D03*
D27*
X39884Y216545D02*
D03*
X44338Y212091D02*
D03*
X48773Y225727D02*
D03*
X53227Y221273D02*
D03*
X125996Y160378D02*
D03*
X130450Y155923D02*
D03*
D28*
X113500Y82188D02*
D03*
Y77267D02*
D03*
D29*
X117486Y79728D02*
D03*
X109514D02*
D03*
D30*
X91000Y240000D02*
D03*
D64*
X90000Y187500D02*
D03*
X84291Y181791D02*
D03*
X95709D02*
D03*
X95709Y193209D02*
D03*
X84291Y193209D02*
D03*
X90000D02*
D03*
Y181791D02*
D03*
X84291Y187500D02*
D03*
X95709D02*
D03*
M02*
